<svg xmlns="http://www.w3.org/2000/svg" viewBox="0 0 128 128"><path fill-rule="evenodd" clip-rule="evenodd" fill="#3A4D54" d="M73.8 50.8h11.3v11.5H73.8z"/><path fill-rule="evenodd" clip-rule="evenodd" fill="#00596E" d="M73.8 50.8h11.3v11.5H73.8zM24 69.2h11.3V80.7H24zM41 69.2h11.3V80.7H41zM24 50.8h11.3v11.5H24zM41 50.8h11.3v11.5H41zM58 50.8h11.3v11.5H58zM41 32.5h11.3V44H41zM58 32.5h11.3V44H58zM58 69.2h11.3V80.7H58z"/><path fill="#23B8D9" d="M112.8 56.6c-.2-.1-3.5-2.4-10.1-2.4-1.7 0-3.4.2-5.1.5-1.7-12.2-14.1-18-14.7-18.3l-2.9-1.5-1.7 2.8c-2.2 3.8-3.4 8-3.5 12.4-.4 7 2.5 13.7 7.9 18.1-3.7 2.1-9.6 2.6-11.5 2.7H3.4c-1.9 0-3.4 1.5-3.4 3.4 0 16.2 9.2 37.4 27.5 48.5C39.5 129.2 54.7 132 72 132c30 0 55.8-14.3 70.3-44.4 9.8.5 19.7-2.5 24.1-12.5l1.2-2.8-2.8-1.7z"/></svg>
