<svg xmlns="http://www.w3.org/2000/svg" viewBox="0 0 128 128"><g fill="#512BD4"><path d="M61.195 0h4.953c12.918.535 25.688 4.89 36.043 12.676 9.809 7.289 17.473 17.437 21.727 28.906 2.441 6.387 3.84 13.18 4.082 20.012v4.211c-.535 12.836-4.89 25.535-12.601 35.843-7.301 9.856-17.473 17.549-28.969 21.801-6.387 2.441-13.164 3.84-11.996 4.082h-8.637c-12.953-.559-25.742-4.937-36.09-12.758C19.883 107.473 12.195 97.32 7.953 85.836 5.512 79.449 4.113 72.656 3.871 65.824v-4.211C4.406 48.695 8.766 35.898 16.48 25.59c7.29-9.871 17.461-17.559 28.985-21.812C51.836 1.336 56.418.257 61.195 0zm1.758 21.867c-7.078.445-13.972 2.797-19.801 6.922-5.57 3.922-10.082 9.312-12.84 15.453-2.851 6.238-3.937 13.262-3.16 20.074.617 6.168 2.777 12.16 6.305 17.238 3.738 5.395 8.883 9.828 14.796 12.672 5.449 2.652 11.547 3.855 17.609 3.656 7.039-.328 13.883-2.687 19.656-6.754 5.57-3.906 10.059-9.289 12.793-15.406 2.859-6.238 3.945-13.281 3.172-20.105-.613-6.16-2.781-12.152-6.305-17.234-3.734-5.394-8.879-9.828-14.789-12.672-5.098-2.484-10.758-3.797-16.445-3.87a46.876 46.876 0 0 0-.991.027z"/><path d="M62.281 31.344c5.859-.594 11.914.65 17.012 3.531 4.761 2.672 8.676 6.852 11.156 11.754 2.582 5.07 3.617 10.899 3.012 16.586-.535 5.273-2.539 10.379-5.719 14.578-3.305 4.406-7.828 7.828-12.937 9.723-5.496 2.082-11.594 2.457-17.297 1.172-5.191-1.16-9.969-3.844-13.758-7.555-3.949-3.871-6.719-8.84-7.93-14.18-1.313-5.633-1.035-11.598 1.027-16.996 1.934-5.12 5.266-9.691 9.551-13.027 4.211-3.3 9.285-5.27 14.531-5.664a34.727 34.727 0 0 1 1.352-.082z"/></g></svg>
