<svg xmlns="http://www.w3.org/2000/svg" viewBox="0 0 128 128"><path fill="#2088FF" d="M124.737 58.378c0-2.366-1.448-4.47-3.625-5.307l-4.164-1.607c-3.56-1.375-5.925-4.88-5.925-8.773 0-1.375.312-2.74.912-3.974l1.86-3.843c.97-2.002.782-4.36-.468-6.158-1.82-2.612-3.837-5.06-5.997-7.278-1.787-1.826-4.36-2.5-6.714-1.753l-4.112 1.29c-1.068.334-2.185.501-3.313.501-3.783 0-7.247-2.122-8.89-5.46l-1.93-3.92c-1.042-2.128-3.212-3.47-5.586-3.47H73.84c-2.374 0-4.544 1.341-5.588 3.47l-1.93 3.92c-1.644 3.338-5.108 5.46-8.891 5.46-1.128 0-2.245-.167-3.313-.5l-4.112-1.29c-2.355-.745-4.933-.073-6.72 1.753a49.594 49.594 0 0 0-5.991 7.278c-1.25 1.798-1.439 4.156-.469 6.158l1.86 3.843c.6 1.234.913 2.6.913 3.974 0 3.893-2.365 7.398-5.925 8.773l-4.164 1.607c-2.177.836-3.625 2.941-3.625 5.307v3.244c0 2.366 1.448 4.47 3.625 5.307l4.163 1.607c3.56 1.375 5.926 4.88 5.926 8.773 0 1.375-.313 2.74-.913 3.974l-1.86 3.843c-.97 2.002-.781 4.36.469 6.158a49.556 49.556 0 0 0 5.99 7.278c1.788 1.826 4.366 2.498 6.72 1.753l4.113-1.29a9.695 9.695 0 0 1 3.313-.501c3.783 0 7.247 2.122 8.89 5.46l1.93 3.92c1.044 2.128 3.214 3.47 5.589 3.47h2.935c2.374 0 4.544-1.342 5.587-3.47l1.93-3.92c1.643-3.338 5.108-5.46 8.891-5.46 1.128 0 2.245.167 3.313.5l4.112 1.29c2.355.746 4.927.074 6.715-1.752a49.585 49.585 0 0 0 5.997-7.278c1.25-1.798 1.438-4.156.468-6.158l-1.86-3.843a8.66 8.66 0 0 1-.912-3.974c0-3.893 2.365-7.398 5.925-8.773l4.164-1.607c2.177-.837 3.625-2.941 3.625-5.307v-3.244zM75.308 80c-10.828 0-19.612-8.784-19.612-19.612 0-10.828 8.784-19.612 19.612-19.612 10.828 0 19.612 8.784 19.612 19.612C94.92 71.216 86.136 80 75.308 80z"/><path fill="#2088FF" d="M23.003 98.89c0-1.36-.832-2.573-2.086-3.056L18.53 94.91c-2.05-.793-3.41-2.81-3.41-5.052 0-.792.18-1.578.525-2.29l1.073-2.212c.557-1.153.449-2.511-.27-3.548a28.588 28.588 0 0 0-3.45-4.192c-1.03-1.05-2.51-1.44-3.868-1.009l-2.367.743a5.548 5.548 0 0 1-1.908.289c-2.178 0-4.173-1.222-5.12-3.144L-1.385 72.23c-.6-1.225-1.849-1.998-3.218-1.998h-1.69c-1.369 0-2.618.773-3.218 1.998l-1.112 2.258c-.947 1.922-2.94 3.144-5.12 3.144-.65 0-1.292-.096-1.907-.288l-2.367-.743c-1.358-.43-2.84-.042-3.869 1.01a28.555 28.555 0 0 0-3.45 4.191c-.72 1.036-.83 2.394-.27 3.548l1.072 2.213c.346.711.526 1.497.526 2.29 0 2.241-1.361 4.259-3.41 5.052l-2.398.924c-1.253.483-2.087 1.694-2.087 3.056v1.868c0 1.36.834 2.573 2.087 3.056l2.397.924c2.05.793 3.411 2.81 3.411 5.052 0 .793-.18 1.579-.526 2.29l-1.072 2.213c-.557 1.153-.449 2.511.27 3.548a28.565 28.565 0 0 0 3.45 4.192c1.03 1.05 2.511 1.44 3.87 1.009l2.366-.743a5.553 5.553 0 0 1 1.907-.289c2.18 0 4.174 1.222 5.121 3.145l1.112 2.257c.6 1.225 1.85 1.998 3.218 1.998h1.69c1.37 0 2.618-.773 3.218-1.998l1.112-2.257c.946-1.923 2.94-3.145 5.12-3.145.65 0 1.292.097 1.907.289l2.367.743c1.358.43 2.838.042 3.869-1.01a28.576 28.576 0 0 0 3.449-4.191c.72-1.036.828-2.394.27-3.548l-1.072-2.213a4.978 4.978 0 0 1-.526-2.29c0-2.241 1.361-4.259 3.41-5.052l2.399-.924c1.253-.483 2.086-1.695 2.086-3.056V98.89zm-28.696 12.45c-6.236 0-11.294-5.058-11.294-11.293 0-6.236 5.058-11.294 11.294-11.294 6.235 0 11.293 5.058 11.293 11.294 0 6.235-5.058 11.293-11.293 11.293z" transform="translate(30 -60)"/></svg>
