<svg xmlns="http://www.w3.org/2000/svg" viewBox="0 0 128 128"><path fill="#FCC624" d="M0 64C0 28.654 28.654 0 64 0s64 28.654 64 64-28.654 64-64 64S0 99.346 0 64z"/><path d="M51.476 46.444c-.893 0-1.613-.733-1.613-1.611 0-.893.72-1.614 1.613-1.614H76.22c.893 0 1.614.72 1.614 1.614 0 .878-.72 1.611-1.614 1.611H51.476zM32.667 71.522c-.893 0-1.614-.72-1.614-1.614 0-.878.72-1.611 1.614-1.611h62.369c.893 0 1.613.733 1.613 1.611 0 .893-.72 1.614-1.613 1.614H32.667zM42.082 58.983c-.893 0-1.614-.733-1.614-1.611 0-.893.72-1.614 1.614-1.614h43.557c.894 0 1.614.72 1.614 1.614 0 .878-.72 1.611-1.614 1.611H42.082zM42.082 84.061c-.893 0-1.614-.72-1.614-1.614 0-.878.72-1.611 1.614-1.611h43.557c.894 0 1.614.733 1.614 1.611 0 .893-.72 1.614-1.614 1.614H42.082z"/></svg>
