<svg xmlns="http://www.w3.org/2000/svg" viewBox="0 0 128 128"><path fill="#439934" fill-rule="evenodd" d="M90.491 57.282c-.37-4.79-1.896-9.293-4.211-13.225-3.086-5.254-6.54-10.271-9.957-15.268C70.6 20.2 65.076 11.613 60.79 2.318 59.702.645 58.706.645 57.662 2.318 53.43 11.613 47.86 20.2 42.123 28.79c-3.416 4.997-6.871 10.014-9.957 15.268-2.315 3.932-3.841 8.435-4.211 13.225-.106 1.399-.07 2.803.105 4.198 1.645 13.178 8.573 23.797 17.602 33.198a83.49 83.49 0 0 0 10.023 9.125c.085.063.163.14.255.19.544.328.738.2.645-.423-.144-.946-.267-1.893-.391-2.84l-.009-.063c-.723-5.396-1.497-10.795-1.04-16.25a48.773 48.773 0 0 1 1.193-7.637c.386-1.523 1.12-2.927 2.135-4.12 3.227-3.821 6.727-3.821 10.01-.1 1.15 1.302 1.97 2.849 2.4 4.52a48.52 48.52 0 0 1 1.153 7.335c.467 5.455-.308 10.86-1.032 16.257l-.026.185c-.124.949-.246 1.898-.391 2.846-.093.623.101.751.645.423.092-.05.17-.126.255-.19a83.506 83.506 0 0 0 10.023-9.125c9.029-9.401 15.957-20.02 17.602-33.198.175-1.395.21-2.799.105-4.198"/></svg>
