<svg xmlns="http://www.w3.org/2000/svg" viewBox="0 0 128 128"><path fill="#e8292c" d="M116.452 6.643a59.104 59.104 0 0 0-6.837-4.136C104.013.573 97.236.041 90.814.004 81.292-.043 71.751.004 62.227.004c-5.97 0-11.956-.036-17.909.14-8.047.237-15.489 1.47-21.58 6.99C16.672 12.894 14.846 20.74 14.412 29.1c-.283 5.444-.49 10.9-.473 16.348.024 8.677.177 17.354.294 26.032.079 5.89.582 11.77 2.86 17.278 3.487 8.426 10.395 12.392 18.988 13.617 8.263 1.178 16.6.468 24.911.674 10.394.258 20.8.143 31.186-.075 5.314-.112 10.505-.567 15.512-2.57 8.8-3.52 13.282-10.197 14.694-19.324.943-6.1 1.16-12.306 1.205-18.488.053-7.402.152-14.807.065-22.209-.04-3.407-.22-6.836-.652-10.209-.617-4.832-1.564-9.725-4.55-13.88zm-32.166 69.16c-4.695 3.453-10.165 5.09-15.927 5.7-8.023.85-15.98.473-23.72-1.835-6.283-1.872-11.271-5.453-13.725-11.797-.388-.986-.567-2.2-.384-3.237.237-1.328 1.466-1.678 2.588-1.014.742.44 1.406 1.055 1.98 1.692 2.314 2.572 4.324 5.476 7.478 7.164 5.243 2.802 10.843 3.733 16.659 3.635 4.335-.073 8.548-.795 12.448-2.837 3.963-2.073 5.834-5.553 5.431-9.888-.395-4.252-2.467-7.26-6.434-8.903-3.994-1.654-8.21-2.64-12.368-3.763-4.587-1.24-9.2-2.382-13.552-4.288-11.86-5.194-13.86-19.03-3.893-26.97 3.464-2.758 7.459-4.091 11.705-4.784 7.905-1.29 15.72-.9 23.28 1.837 3.75 1.357 7.139 3.333 9.53 6.711 1.096 1.55 1.37 3.115.163 4.553-1.173 1.4-2.626 1.06-4.046.103-1.182-.798-2.255-1.78-3.434-2.59-5.343-3.67-11.288-4.67-17.506-4.187-3.463.268-6.826.94-9.824 2.933-3.24 2.153-4.706 5.473-3.874 9.22.762 3.44 3.19 5.47 6.18 6.78 3.948 1.728 8.136 2.728 12.26 3.945 4.361 1.286 8.75 2.476 12.901 4.254 5.422 2.32 9.3 6.295 10.498 12.227 1.437 7.122-.367 13.31-5.943 17.444z"/></svg>
